<?xml version="1.0"?>
<svg xmlns="http://www.w3.org/2000/svg" viewBox="0 0 211.667 211.667" height="800" width="800">
  <rect ry="1.122" rx="1.122" height="211.667" width="211.667" fill="#6076d9"/>
  <g transform="matrix(.37978 0 0 .36587 -3.342 -26.566)" fill="none" stroke-width=".946">
    <path d="M204.103 372.673l2.81.829c3.532-1.58 10.63.862 14.396 2.056-6.934-7.687-17.38-18.975-24.907-26.092-2.47-8.615-1.416-17.284-.885-26.08l.107-.727c-2.967 7.04-6.732 13.885-8.755 21.296-2.368 9.998 10.524 20.785 15.523 26.968zm214.9 42.285c-19.35-.547-27.861-.5-37.716-16.705l-7.68.22c-8.94-.397-5.214-.217-11.179-.514-9.971-.388-8.374-9.863-10.128-14.869-2.807-16.993 3.713-34.074 3.508-51.07-.073-6.034-8.61-27.39-11.66-35.025-9.562 1.8-19.176 2.144-28.876 2.627-22.36-.054-44.567-2.793-66.614-6.27-4.296 17.749-17.067 42.59-6.511 60.627 12.813 18.658 21.804 23.827 35.741 24.952 13.937 1.124 17.084 16.859 13.712 22.479-2.984 3.884-8.23 4.589-12.686 5.53l-8.915.419c-7.014-.236-13.284-2.13-19.535-5.051-10.439-5.827-21.22-17.941-29.23-26.638 1.865 3.473 2.977 10.253 1.286 13.408-4.736 6.709-25.219 6.668-34.6 2.499-10.655-4.735-36.404-37.982-40.385-62.882 10.59-20.03 26.02-37.475 33.826-59.284-17.015-10.857-26.128-28.53-24.945-48.551l.427-2.318c-16.742 3.134-8.06 1.968-26.07 3.33-57.356-.175-107.796-39.064-79.394-99.505 1.847-3.579 3.604-6.833 6.735-5.279 2.513 1.247 2.152 6.249.888 11.796-16.235 72.219 63.112 72.772 111.888 59.408 4.84-1.327 14.469-10.261 21.138-13.223 10.902-4.841 22.735-6.806 34.478-8.22 29.208-3.329 64.312 12.057 82.148 12.56 17.837.502 43.21-4.27 58.785-3.266 11.302.517 22.399 2.557 33.303 5.463 7.058-34.391 7.557-59.738 24.289-65.606 9.82 1.551 17.387 14.933 22.988 22.083l.023-.004c11.407-.45 22.262 2.444 33.055 5.656 19.54-2.773 35.937-13.746 53.193-22.282-.054.269-.336.36-.504.541-16.982 13.734-19.354 36.958-17.356 58.434.743 11.144-2.406 23.244-6.299 34.654-7.285 18.59-21.354 38.185-37.683 37.18-6.173-.195-9.76-3.69-14.347-7.423-.89 7.56-4.388 14.304-7.76 20.989-7.787 14.821-28.136 21.353-46.978 37.18-18.84 15.827 6.029 72.351 12.059 82.65 6.029 10.3 22.86 14.068 16.329 23.364-1.998 3.07-5.053 4.168-8.318 5.359z" fill="#000"/>
  </g>
  <g style="line-height:1.25;-inkscape-font-specification:Arial" aria-label="TiddlyWiki" font-size="45.861" font-family="Arial" fill="#fff" stroke-width=".265" font-weight="400">
    <path d="M15.297 181.57v-28.954H4.481v-3.874h26.021v3.874h-10.86v28.954zM32.786 153.377v-4.635h4.03v4.635zm0 28.193V157.79h4.03v23.781zM58.404 181.57v-3q-2.262 3.538-6.65 3.538-2.845 0-5.24-1.568-2.375-1.567-3.696-4.367-1.299-2.821-1.299-6.471 0-3.56 1.187-6.45 1.187-2.91 3.56-4.456 2.374-1.545 5.308-1.545 2.15 0 3.83.918 1.679.896 2.731 2.352v-11.78h4.009v32.83zm-12.742-11.868q0 4.568 1.926 6.83 1.926 2.261 4.546 2.261 2.642 0 4.478-2.15 1.86-2.171 1.86-6.605 0-4.882-1.882-7.166-1.881-2.284-4.635-2.284-2.688 0-4.501 2.194-1.792 2.195-1.792 6.92zM83.932 181.57v-3q-2.262 3.538-6.65 3.538-2.845 0-5.24-1.568-2.374-1.567-3.696-4.367-1.298-2.821-1.298-6.471 0-3.56 1.186-6.45 1.187-2.91 3.561-4.456 2.374-1.545 5.307-1.545 2.15 0 3.83.918 1.679.896 2.731 2.352v-11.78h4.009v32.83zM71.19 169.702q0 4.568 1.926 6.83 1.926 2.261 4.546 2.261 2.642 0 4.479-2.15 1.858-2.171 1.858-6.605 0-4.882-1.88-7.166-1.882-2.284-4.636-2.284-2.687 0-4.501 2.194-1.792 2.195-1.792 6.92zM93.942 181.57v-32.828h4.03v32.828zM104.063 190.729l-.447-3.784q1.32.358 2.306.358 1.344 0 2.15-.448.806-.448 1.321-1.254.38-.605 1.232-3 .112-.337.358-.986l-9.025-23.826h4.345l4.949 13.771q.963 2.62 1.724 5.51.694-2.778 1.657-5.42l5.083-13.861h4.031l-9.047 24.184q-1.455 3.92-2.262 5.397-1.074 1.993-2.463 2.911-1.388.94-3.314.94-1.164 0-2.598-.492zM133.42 181.57l-8.71-32.828h4.456l4.994 21.52q.806 3.381 1.388 6.718 1.254-5.263 1.478-6.069l6.248-22.17h5.24l4.702 16.617q1.77 6.18 2.553 11.622.627-3.113 1.635-7.144l5.15-21.094h4.367l-9.002 32.828h-4.188l-6.92-25.013q-.872-3.135-1.03-3.852-.514 2.262-.962 3.852l-6.964 25.013zM170.459 153.377v-4.635h4.03v4.635zm0 28.193V157.79h4.03v23.781zM180.67 181.57v-32.828h4.031v18.72l9.54-9.673h5.217l-9.091 8.823 10.01 14.958h-4.972l-7.86-12.16-2.844 2.733v9.427zM203.6 153.377v-4.635h4.032v4.635zm0 28.193V157.79h4.032v23.781z"/>
  </g>
</svg>
